<svg xmlns="http://www.w3.org/2000/svg" xmlns:xlink="http://www.w3.org/1999/xlink" viewBox="0 0 716.42 551.45"><defs><style>.cls-1{fill:none;}.cls-2{fill:#afd7a2;}.cls-3{font-size:18.9px;}.cls-10,.cls-11,.cls-12,.cls-13,.cls-14,.cls-15,.cls-16,.cls-17,.cls-18,.cls-19,.cls-20,.cls-21,.cls-22,.cls-23,.cls-24,.cls-3,.cls-4,.cls-5,.cls-6,.cls-7,.cls-8,.cls-9{fill:#231815;font-family:MicrosoftYaHei, Microsoft YaHei;}.cls-4{font-size:17.72px;}.cls-5{font-size:17.66px;}.cls-6{font-size:18.22px;}.cls-7{font-size:17.07px;}.cls-8{font-size:18.37px;}.cls-9{font-size:19.33px;}.cls-10{font-size:17.08px;}.cls-11{font-size:17.84px;}.cls-12{font-size:17.9px;}.cls-13{font-size:17.41px;}.cls-14{font-size:18.19px;}.cls-15{font-size:17.29px;}.cls-16{font-size:16.87px;}.cls-17{font-size:18.53px;}.cls-18{font-size:17.48px;}.cls-19{font-size:18.67px;}.cls-20{font-size:18.09px;}.cls-21{font-size:18.38px;}.cls-22{font-size:17.61px;}.cls-23{font-size:19.2px;}.cls-24{font-size:12px;}.cls-25{clip-path:url(#clip-path);}.cls-26{fill:#24673c;}</style><clipPath id="clip-path"><rect class="cls-1" x="27.97" y="18.64" width="723" height="531.88"/></clipPath><symbol id="箭头_7" data-name="箭头 7" viewBox="0 0 16.99 94.39"><polygon class="cls-2" points="16.99 69.03 8.46 94.39 0 69.03 5.07 69.03 5.07 0 11.18 0 11.18 69.03 16.99 69.03"/></symbol></defs><title>资源 1</title><g id="图层_2" data-name="图层 2"><g id="左上角柱图"><g id="文字"><text class="cls-3" transform="translate(0 35.46) scale(0.95 1)">16</text><text class="cls-4" transform="translate(0 63.15) scale(1.02 1)">20</text><text class="cls-5" transform="translate(0 86.94) scale(1.02 1)">11</text><text class="cls-6" transform="translate(0 111.7) scale(0.99 1)">15</text><text class="cls-7" transform="translate(0 137.2) scale(1.05 1)"><tspan xml:space="preserve">  7</tspan></text><text class="cls-8" transform="translate(0 164.37) scale(0.98 1)">12</text><text class="cls-9" transform="translate(0 189.47) scale(0.93 1)">17</text><text class="cls-10" transform="translate(0 213.16) scale(1.05 1)"><tspan xml:space="preserve">  6</tspan></text><text class="cls-11" transform="translate(0 238.13) scale(1.01 1)">18</text><text class="cls-12" transform="translate(0 265.92) scale(1.01 1)">13</text><text class="cls-13" transform="translate(0 288.94) scale(1.03 1)"><tspan xml:space="preserve">  8</tspan></text><text class="cls-14" transform="translate(0 314.77) scale(0.99 1)">10</text><text class="cls-15" transform="translate(0 341.37) scale(1.04 1)"><tspan xml:space="preserve">  9</tspan></text><text class="cls-16" transform="translate(0 366.42) scale(1.07 1)"><tspan xml:space="preserve">  4</tspan></text><text class="cls-17" transform="translate(0 392.77) scale(0.97 1)">14</text><text class="cls-18" transform="translate(0 419.34) scale(1.03 1)"><tspan xml:space="preserve">  1</tspan></text><text class="cls-19" transform="translate(0 444.11) scale(0.96 1)"><tspan xml:space="preserve">  2</tspan></text><text class="cls-20" transform="translate(0 467.89)"><tspan xml:space="preserve">  5</tspan></text><text class="cls-21" transform="translate(0 494.19) scale(0.98 1)">21</text><text class="cls-22" transform="translate(0 518.7) scale(1.02 1)">19</text><text class="cls-23" transform="translate(0 546.55) scale(0.94 1)"><tspan xml:space="preserve">  3</tspan></text><text class="cls-24" transform="translate(0 10.29)">HS编码</text><text class="cls-24" transform="translate(597.58 12)">进口金额（2017年）</text></g><g class="cls-25"><rect class="cls-2" x="27.97" y="529" width="0.63" height="19"/><rect class="cls-2" x="27.97" y="503.67" width="0.63" height="19"/><rect class="cls-2" x="27.97" y="478.34" width="0.63" height="19"/><rect class="cls-2" x="27.97" y="453.01" width="3.14" height="19"/><rect class="cls-2" x="27.97" y="427.69" width="4.4" height="19"/><rect class="cls-2" x="27.97" y="402.36" width="6.91" height="19"/><rect class="cls-2" x="27.97" y="377.03" width="7.54" height="19"/><rect class="cls-2" x="27.97" y="351.7" width="8.17" height="19"/><rect class="cls-2" x="27.97" y="326.37" width="11.93" height="19"/><rect class="cls-2" x="27.97" y="301.05" width="15.7" height="19"/><rect class="cls-2" x="27.97" y="275.72" width="20.73" height="19"/><rect class="cls-2" x="27.97" y="250.39" width="20.73" height="19"/><rect class="cls-2" x="27.97" y="225.06" width="35.8" height="19"/><rect class="cls-2" x="27.97" y="199.73" width="41.46" height="19"/><rect class="cls-2" x="27.97" y="174.41" width="43.97" height="19"/><rect class="cls-2" x="27.97" y="149.08" width="49" height="19"/><rect class="cls-2" x="27.97" y="123.75" width="55.91" height="19"/><rect class="cls-2" x="27.97" y="98.42" width="70.98" height="19"/><rect class="cls-2" x="27.97" y="73.1" width="107.41" height="19"/><rect class="cls-2" x="27.97" y="47.77" width="170.23" height="19"/><rect class="cls-2" x="27.97" y="22.44" width="688.45" height="19"/></g><g class="cls-25"><rect class="cls-26" x="27.97" y="529" width="0.63" height="19"/><rect class="cls-26" x="27.97" y="503.67" width="0.63" height="19"/><rect class="cls-26" x="27.97" y="478.34" width="0.63" height="19"/><rect class="cls-26" x="27.97" y="453.01" width="3.14" height="19"/><rect class="cls-26" x="27.97" y="427.69" width="2.51" height="19"/><rect class="cls-26" x="27.97" y="402.36" width="6.91" height="19"/><rect class="cls-26" x="27.97" y="377.03" width="0.63" height="19"/><rect class="cls-26" x="27.97" y="351.7" width="7.54" height="19"/><rect class="cls-26" x="27.97" y="326.37" width="10.05" height="19"/><rect class="cls-26" x="27.97" y="301.05" width="9.42" height="19"/><rect class="cls-26" x="27.97" y="275.72" width="20.73" height="19"/><rect class="cls-26" x="27.97" y="250.39" width="14.45" height="19"/><rect class="cls-26" x="27.97" y="225.06" width="17.59" height="19"/><rect class="cls-26" x="27.97" y="199.73" width="27.01" height="19"/><rect class="cls-26" x="27.97" y="174.41" width="42.09" height="19"/><rect class="cls-26" x="27.97" y="149.08" width="4.4" height="19"/><rect class="cls-26" x="27.97" y="123.75" width="33.92" height="19"/><rect class="cls-26" x="27.97" y="98.42" width="47.11" height="19"/><rect class="cls-26" x="27.97" y="73.1" width="10.05" height="19"/><rect class="cls-26" x="27.97" y="47.77" width="82.29" height="19"/><rect class="cls-26" x="27.97" y="22.44" width="327.89" height="19"/></g><use id="箭头_7-3" data-name="箭头 7" width="16.99" height="94.39" transform="translate(106.18 112.08) scale(1 1.52)" xlink:href="#箭头_7"/></g></g></svg>