<svg xmlns="http://www.w3.org/2000/svg" xmlns:xlink="http://www.w3.org/1999/xlink" viewBox="0 0 187.32 170.54"><defs><style>.cls-1,.cls-2,.cls-9{fill:none;}.cls-1{clip-rule:evenodd;}.cls-2{fill-rule:evenodd;}.cls-3{clip-path:url(#clip-path);}.cls-4{fill:#1e3661;}.cls-5{fill:#d7dff0;}.cls-6,.cls-8{font-size:12px;}.cls-6,.cls-7,.cls-8{fill:#231815;}.cls-6,.cls-7{font-family:HYGangYiTi-CEW, HYGangYiTi;}.cls-7{font-size:11px;}.cls-8{font-family:DengXian-Regular, DengXian;}.cls-9{stroke:#221714;stroke-miterlimit:10;}</style><clipPath id="clip-path" transform="translate(-5.83 -6.26)"><polygon class="cls-1" points="0 160.15 198.91 160.15 198.91 0 0 0 0 160.15 0 160.15"/></clipPath></defs><title>img4</title><g id="图层_2" data-name="图层 2"><g id="HS编码"><g id="第三部分"><g class="cls-3"><path class="cls-4" d="M5.83,70H60.75v89.69H5.83V70ZM71.57,102.5h55.76v57.16H71.57V102.5Zm66.58,21.68h54.93v35.48H138.15V124.18Z" transform="translate(-5.83 -6.26)"/></g><g class="cls-3"><path class="cls-5" d="M5.83,27.1H60.75V70H5.83V27.1Zm65.74,0h55.76v75.4H71.57V27.1Zm66.58,0h54.93v97.08H138.15V27.1Z" transform="translate(-5.83 -6.26)"/></g><text class="cls-6" transform="translate(10.98 58.05) scale(1.09 1)">67.7%</text><text class="cls-6" transform="translate(74.43 92) scale(1.09 1)">43.3%</text><text class="cls-6" transform="translate(140.79 113.66) scale(1.09 1)">27.0%</text><text class="cls-7" transform="translate(7.95 167.41) scale(1.09 1)">中间品</text><text class="cls-7" transform="translate(77.7 167.41) scale(1.09 1)">消费品</text><text class="cls-7" transform="translate(140.79 167.41) scale(1.09 1)">资本品</text><text class="cls-8" transform="translate(0.34 9.7)">征税商品类别偏向中间品</text><line class="cls-9" x1="2.27" y1="21.33" x2="187.32" y2="21.33"/><text class="cls-6" transform="translate(140.79 34.13) scale(1.09 1)">100%</text></g></g></g></svg>